<svg xmlns="http://www.w3.org/2000/svg" xmlns:xlink="http://www.w3.org/1999/xlink" width="400" zoomAndPan="magnify" viewBox="0 0 300 60" height="80" preserveAspectRatio="xMidYMid meet" version="1.0"><defs><g/><clipPath id="2272dfc781"><rect x="0" width="300" y="0" height="58"/></clipPath><clipPath id="e2e9f1afcc"><path d="M 182 7 L 212 7 L 212 31 L 182 31 Z M 182 7 " clip-rule="nonzero"/></clipPath><clipPath id="cf344ce052"><path d="M 189.464844 -0.902344 L 222.828125 17.800781 L 215.859375 30.230469 L 182.496094 11.527344 Z M 189.464844 -0.902344 " clip-rule="nonzero"/></clipPath><clipPath id="68867fc8b7"><path d="M 185.382812 -3.1875 L 225.292969 19.183594 L 208.054688 49.929688 L 168.148438 27.558594 Z M 185.382812 -3.1875 " clip-rule="nonzero"/></clipPath><clipPath id="29a091a316"><path d="M 177.898438 3.492188 L 210.84375 3.492188 L 210.84375 50.15625 L 177.898438 50.15625 Z M 177.898438 3.492188 " clip-rule="nonzero"/></clipPath><clipPath id="a91fe1416e"><path d="M 0.898438 0.492188 L 33.84375 0.492188 L 33.84375 47.15625 L 0.898438 47.15625 Z M 0.898438 0.492188 " clip-rule="nonzero"/></clipPath><clipPath id="0eb851daaa"><rect x="0" width="34" y="0" height="48"/></clipPath><clipPath id="b97f256aae"><path d="M 184 4 L 214 4 L 214 28 L 184 28 Z M 184 4 " clip-rule="nonzero"/></clipPath><clipPath id="b2bbefc1c4"><path d="M 191.675781 -3.367188 L 225.042969 15.339844 L 218.074219 27.769531 L 184.710938 9.066406 Z M 191.675781 -3.367188 " clip-rule="nonzero"/></clipPath><clipPath id="4ada079737"><path d="M 187.597656 -5.652344 L 227.503906 16.71875 L 210.265625 47.46875 L 170.359375 25.097656 Z M 187.597656 -5.652344 " clip-rule="nonzero"/></clipPath><clipPath id="351049ac45"><path d="M 172 24 L 209 24 L 209 52 L 172 52 Z M 172 24 " clip-rule="nonzero"/></clipPath><clipPath id="b9256bd195"><path d="M 172.457031 40.679688 L 178.5625 24.347656 L 208.230469 35.441406 L 202.125 51.773438 Z M 172.457031 40.679688 " clip-rule="nonzero"/></clipPath><clipPath id="3e86d0c15f"><path d="M 0.320312 0.238281 L 36.320312 0.238281 L 36.320312 27.839844 L 0.320312 27.839844 Z M 0.320312 0.238281 " clip-rule="nonzero"/></clipPath><clipPath id="53c6f09035"><path d="M 0.457031 16.679688 L 6.5625 0.347656 L 36.230469 11.441406 L 30.125 27.773438 Z M 0.457031 16.679688 " clip-rule="nonzero"/></clipPath><clipPath id="994d4e0e0d"><rect x="0" width="37" y="0" height="28"/></clipPath><clipPath id="acfa0b8f38"><path d="M 179 21 L 209 21 L 209 46 L 179 46 Z M 179 21 " clip-rule="nonzero"/></clipPath><clipPath id="a5dcc12945"><path d="M 172.484375 21.875 L 213.878906 37.515625 L 207.515625 54.351562 L 166.121094 38.710938 Z M 172.484375 21.875 " clip-rule="nonzero"/></clipPath><clipPath id="04c6ebe218"><path d="M 172.308594 21.199219 L 215.105469 37.371094 L 208.480469 54.910156 L 165.683594 38.738281 Z M 172.308594 21.199219 " clip-rule="nonzero"/></clipPath><clipPath id="47b009d6cd"><path d="M 89.773438 -42.894531 L 370.40625 63.148438 L 349.199219 119.273438 L 68.566406 13.234375 Z M 89.773438 -42.894531 " clip-rule="nonzero"/></clipPath></defs><g transform="matrix(1, 0, 0, 1, 0, -0.000000000000001479)"><g clip-path="url(#2272dfc781)"><g fill="#ffffff" fill-opacity="1"><g transform="translate(1.372646, 44.504741)"><g><path d="M 18.359375 -27.265625 L 18.359375 -21.609375 L 0.46875 -21.609375 L 0.46875 -27.265625 Z M 5.3125 0 L 5.3125 -29.671875 C 5.3125 -31.566406 5.6875 -33.140625 6.4375 -34.390625 C 7.1875 -35.640625 8.226562 -36.578125 9.5625 -37.203125 C 10.894531 -37.828125 12.425781 -38.140625 14.15625 -38.140625 C 15.257812 -38.140625 16.273438 -38.066406 17.203125 -37.921875 C 18.140625 -37.785156 18.8125 -37.660156 19.21875 -37.546875 L 18.1875 -31.9375 C 17.90625 -32.007812 17.535156 -32.078125 17.078125 -32.140625 C 16.628906 -32.203125 16.175781 -32.234375 15.71875 -32.234375 C 14.613281 -32.234375 13.828125 -31.976562 13.359375 -31.46875 C 12.898438 -30.957031 12.671875 -30.207031 12.671875 -29.21875 L 12.671875 0 Z M 5.3125 0 "/></g></g></g><g fill="#ffffff" fill-opacity="1"><g transform="translate(21.534067, 44.504741)"><g><path d="M 3.03125 0 L 3.03125 -27.265625 L 10.40625 -27.265625 L 10.40625 0 Z M 6.71875 -30.8125 C 5.582031 -30.8125 4.613281 -31.179688 3.8125 -31.921875 C 3.007812 -32.660156 2.609375 -33.566406 2.609375 -34.640625 C 2.609375 -35.703125 3.007812 -36.601562 3.8125 -37.34375 C 4.613281 -38.09375 5.582031 -38.46875 6.71875 -38.46875 C 7.851562 -38.46875 8.816406 -38.09375 9.609375 -37.34375 C 10.398438 -36.601562 10.796875 -35.703125 10.796875 -34.640625 C 10.796875 -33.566406 10.398438 -32.660156 9.609375 -31.921875 C 8.816406 -31.179688 7.851562 -30.8125 6.71875 -30.8125 Z M 6.71875 -30.8125 "/></g></g></g><g fill="#ffffff" fill-opacity="1"><g transform="translate(35.049137, 44.504741)"><g><path d="M 17.015625 -27.265625 L 17.015625 -21.609375 L 0.46875 -21.609375 L 0.46875 -27.265625 Z M 4.453125 -33.96875 L 11.8125 -33.96875 L 11.8125 -8.078125 C 11.8125 -7.203125 12.003906 -6.5625 12.390625 -6.15625 C 12.773438 -5.757812 13.421875 -5.5625 14.328125 -5.5625 C 14.660156 -5.5625 15.082031 -5.585938 15.59375 -5.640625 C 16.113281 -5.703125 16.515625 -5.757812 16.796875 -5.8125 L 17.609375 -0.203125 C 16.867188 -0.015625 16.09375 0.113281 15.28125 0.1875 C 14.476562 0.257812 13.695312 0.296875 12.9375 0.296875 C 10.144531 0.296875 8.03125 -0.347656 6.59375 -1.640625 C 5.164062 -2.929688 4.453125 -4.820312 4.453125 -7.3125 Z M 4.453125 -33.96875 "/></g></g></g><g fill="#ffffff" fill-opacity="1"><g transform="translate(52.715089, 44.504741)"><g><path d="M 17.015625 -27.265625 L 17.015625 -21.609375 L 0.46875 -21.609375 L 0.46875 -27.265625 Z M 4.453125 -33.96875 L 11.8125 -33.96875 L 11.8125 -8.078125 C 11.8125 -7.203125 12.003906 -6.5625 12.390625 -6.15625 C 12.773438 -5.757812 13.421875 -5.5625 14.328125 -5.5625 C 14.660156 -5.5625 15.082031 -5.585938 15.59375 -5.640625 C 16.113281 -5.703125 16.515625 -5.757812 16.796875 -5.8125 L 17.609375 -0.203125 C 16.867188 -0.015625 16.09375 0.113281 15.28125 0.1875 C 14.476562 0.257812 13.695312 0.296875 12.9375 0.296875 C 10.144531 0.296875 8.03125 -0.347656 6.59375 -1.640625 C 5.164062 -2.929688 4.453125 -4.820312 4.453125 -7.3125 Z M 4.453125 -33.96875 "/></g></g><g transform="translate(71.270514, 44.504741)"><g><path d="M 3.03125 0 L 3.03125 -27.265625 L 10.40625 -27.265625 L 10.40625 0 Z M 6.71875 -30.8125 C 5.582031 -30.8125 4.613281 -31.179688 3.8125 -31.921875 C 3.007812 -32.660156 2.609375 -33.566406 2.609375 -34.640625 C 2.609375 -35.703125 3.007812 -36.601562 3.8125 -37.34375 C 4.613281 -38.09375 5.582031 -38.46875 6.71875 -38.46875 C 7.851562 -38.46875 8.816406 -38.09375 9.609375 -37.34375 C 10.398438 -36.601562 10.796875 -35.703125 10.796875 -34.640625 C 10.796875 -33.566406 10.398438 -32.660156 9.609375 -31.921875 C 8.816406 -31.179688 7.851562 -30.8125 6.71875 -30.8125 Z M 6.71875 -30.8125 "/></g></g><g transform="translate(84.711462, 44.504741)"><g><path d="M 10.40625 -15.65625 L 10.40625 0 L 3.03125 0 L 3.03125 -27.265625 L 10.046875 -27.265625 L 10.15625 -20.40625 L 9.53125 -20.40625 C 10.269531 -22.707031 11.382812 -24.492188 12.875 -25.765625 C 14.375 -27.035156 16.289062 -27.671875 18.625 -27.671875 C 20.519531 -27.671875 22.175781 -27.257812 23.59375 -26.4375 C 25.007812 -25.613281 26.101562 -24.425781 26.875 -22.875 C 27.644531 -21.320312 28.03125 -19.460938 28.03125 -17.296875 L 28.03125 0 L 20.671875 0 L 20.671875 -15.984375 C 20.671875 -17.710938 20.234375 -19.054688 19.359375 -20.015625 C 18.492188 -20.984375 17.28125 -21.46875 15.71875 -21.46875 C 14.675781 -21.46875 13.753906 -21.238281 12.953125 -20.78125 C 12.160156 -20.332031 11.535156 -19.679688 11.078125 -18.828125 C 10.628906 -17.972656 10.40625 -16.914062 10.40625 -15.65625 Z M 10.40625 -15.65625 "/></g></g><g transform="translate(115.793652, 44.504741)"><g><path d="M 15.3125 10.875 C 12.976562 10.875 10.953125 10.566406 9.234375 9.953125 C 7.523438 9.347656 6.144531 8.503906 5.09375 7.421875 C 4.039062 6.347656 3.332031 5.109375 2.96875 3.703125 L 9.46875 2.34375 C 9.695312 2.882812 10.046875 3.394531 10.515625 3.875 C 10.992188 4.351562 11.625 4.738281 12.40625 5.03125 C 13.195312 5.332031 14.160156 5.484375 15.296875 5.484375 C 17.148438 5.484375 18.601562 5.035156 19.65625 4.140625 C 20.71875 3.253906 21.25 1.890625 21.25 0.046875 L 21.25 -4.796875 L 20.796875 -4.796875 C 20.421875 -3.984375 19.898438 -3.234375 19.234375 -2.546875 C 18.578125 -1.867188 17.75 -1.320312 16.75 -0.90625 C 15.75 -0.5 14.539062 -0.296875 13.125 -0.296875 C 11.007812 -0.296875 9.101562 -0.800781 7.40625 -1.8125 C 5.707031 -2.820312 4.359375 -4.320312 3.359375 -6.3125 C 2.367188 -8.3125 1.875 -10.773438 1.875 -13.703125 C 1.875 -16.722656 2.378906 -19.269531 3.390625 -21.34375 C 4.410156 -23.414062 5.765625 -24.988281 7.453125 -26.0625 C 9.148438 -27.132812 11.039062 -27.671875 13.125 -27.671875 C 14.582031 -27.671875 15.828125 -27.429688 16.859375 -26.953125 C 17.890625 -26.472656 18.742188 -25.863281 19.421875 -25.125 C 20.109375 -24.382812 20.648438 -23.617188 21.046875 -22.828125 L 21.265625 -22.828125 L 21.265625 -27.265625 L 28.5625 -27.265625 L 28.5625 -0.390625 C 28.5625 2.140625 27.992188 4.238281 26.859375 5.90625 C 25.722656 7.582031 24.160156 8.828125 22.171875 9.640625 C 20.179688 10.460938 17.894531 10.875 15.3125 10.875 Z M 15.34375 -5.984375 C 16.613281 -5.984375 17.691406 -6.296875 18.578125 -6.921875 C 19.460938 -7.546875 20.140625 -8.4375 20.609375 -9.59375 C 21.078125 -10.757812 21.3125 -12.15625 21.3125 -13.78125 C 21.3125 -15.394531 21.078125 -16.796875 20.609375 -17.984375 C 20.140625 -19.179688 19.460938 -20.109375 18.578125 -20.765625 C 17.691406 -21.429688 16.613281 -21.765625 15.34375 -21.765625 C 14.070312 -21.765625 12.992188 -21.425781 12.109375 -20.75 C 11.234375 -20.070312 10.566406 -19.132812 10.109375 -17.9375 C 9.660156 -16.75 9.4375 -15.363281 9.4375 -13.78125 C 9.4375 -12.1875 9.664062 -10.800781 10.125 -9.625 C 10.59375 -8.445312 11.265625 -7.546875 12.140625 -6.921875 C 13.023438 -6.296875 14.09375 -5.984375 15.34375 -5.984375 Z M 15.34375 -5.984375 "/></g></g><g transform="translate(147.369996, 44.504741)"><g/></g><g transform="translate(159.106117, 44.504741)"><g><path d="M 3.03125 0 L 3.03125 -27.265625 L 10.171875 -27.265625 L 10.171875 -22.5625 L 10.421875 -22.5625 C 10.921875 -24.21875 11.742188 -25.46875 12.890625 -26.3125 C 14.046875 -27.164062 15.414062 -27.59375 17 -27.59375 C 17.394531 -27.59375 17.804688 -27.578125 18.234375 -27.546875 C 18.660156 -27.515625 19.03125 -27.460938 19.34375 -27.390625 L 19.34375 -20.875 C 19.03125 -20.96875 18.5625 -21.046875 17.9375 -21.109375 C 17.320312 -21.171875 16.726562 -21.203125 16.15625 -21.203125 C 15.070312 -21.203125 14.085938 -20.960938 13.203125 -20.484375 C 12.316406 -20.003906 11.628906 -19.328125 11.140625 -18.453125 C 10.648438 -17.578125 10.40625 -16.546875 10.40625 -15.359375 L 10.40625 0 Z M 3.03125 0 "/></g></g></g><g fill="#ffffff" fill-opacity="1"><g transform="translate(178.328652, 44.504741)"><g><path d="M 15.34375 0.546875 C 12.59375 0.546875 10.207031 -0.0390625 8.1875 -1.21875 C 6.164062 -2.394531 4.609375 -4.039062 3.515625 -6.15625 C 2.421875 -8.28125 1.875 -10.738281 1.875 -13.53125 C 1.875 -16.363281 2.421875 -18.835938 3.515625 -20.953125 C 4.609375 -23.078125 6.164062 -24.726562 8.1875 -25.90625 C 10.207031 -27.082031 12.59375 -27.671875 15.34375 -27.671875 C 18.070312 -27.671875 20.445312 -27.082031 22.46875 -25.90625 C 24.488281 -24.726562 26.046875 -23.078125 27.140625 -20.953125 C 28.234375 -18.835938 28.78125 -16.363281 28.78125 -13.53125 C 28.78125 -10.738281 28.234375 -8.28125 27.140625 -6.15625 C 26.046875 -4.039062 24.488281 -2.394531 22.46875 -1.21875 C 20.445312 -0.0390625 18.070312 0.546875 15.34375 0.546875 Z M 15.34375 -5.28125 C 16.625 -5.28125 17.703125 -5.632812 18.578125 -6.34375 C 19.460938 -7.050781 20.132812 -8.023438 20.59375 -9.265625 C 21.0625 -10.515625 21.296875 -11.945312 21.296875 -13.5625 C 21.296875 -15.195312 21.0625 -16.628906 20.59375 -17.859375 C 20.132812 -19.097656 19.460938 -20.070312 18.578125 -20.78125 C 17.703125 -21.488281 16.625 -21.84375 15.34375 -21.84375 C 14.0625 -21.84375 12.972656 -21.488281 12.078125 -20.78125 C 11.191406 -20.070312 10.519531 -19.097656 10.0625 -17.859375 C 9.613281 -16.628906 9.390625 -15.195312 9.390625 -13.5625 C 9.390625 -11.945312 9.613281 -10.515625 10.0625 -9.265625 C 10.519531 -8.023438 11.1875 -7.050781 12.0625 -6.34375 C 12.945312 -5.632812 14.039062 -5.28125 15.34375 -5.28125 Z M 15.34375 -5.28125 "/></g></g><g transform="translate(208.990813, 44.504741)"><g><path d="M 15.34375 0.546875 C 12.59375 0.546875 10.207031 -0.0390625 8.1875 -1.21875 C 6.164062 -2.394531 4.609375 -4.039062 3.515625 -6.15625 C 2.421875 -8.28125 1.875 -10.738281 1.875 -13.53125 C 1.875 -16.363281 2.421875 -18.835938 3.515625 -20.953125 C 4.609375 -23.078125 6.164062 -24.726562 8.1875 -25.90625 C 10.207031 -27.082031 12.59375 -27.671875 15.34375 -27.671875 C 18.070312 -27.671875 20.445312 -27.082031 22.46875 -25.90625 C 24.488281 -24.726562 26.046875 -23.078125 27.140625 -20.953125 C 28.234375 -18.835938 28.78125 -16.363281 28.78125 -13.53125 C 28.78125 -10.738281 28.234375 -8.28125 27.140625 -6.15625 C 26.046875 -4.039062 24.488281 -2.394531 22.46875 -1.21875 C 20.445312 -0.0390625 18.070312 0.546875 15.34375 0.546875 Z M 15.34375 -5.28125 C 16.625 -5.28125 17.703125 -5.632812 18.578125 -6.34375 C 19.460938 -7.050781 20.132812 -8.023438 20.59375 -9.265625 C 21.0625 -10.515625 21.296875 -11.945312 21.296875 -13.5625 C 21.296875 -15.195312 21.0625 -16.628906 20.59375 -17.859375 C 20.132812 -19.097656 19.460938 -20.070312 18.578125 -20.78125 C 17.703125 -21.488281 16.625 -21.84375 15.34375 -21.84375 C 14.0625 -21.84375 12.972656 -21.488281 12.078125 -20.78125 C 11.191406 -20.070312 10.519531 -19.097656 10.0625 -17.859375 C 9.613281 -16.628906 9.390625 -15.195312 9.390625 -13.5625 C 9.390625 -11.945312 9.613281 -10.515625 10.0625 -9.265625 C 10.519531 -8.023438 11.1875 -7.050781 12.0625 -6.34375 C 12.945312 -5.632812 14.039062 -5.28125 15.34375 -5.28125 Z M 15.34375 -5.28125 "/></g></g><g transform="translate(239.652974, 44.504741)"><g><path d="M 3.03125 0 L 3.03125 -27.265625 L 9.9375 -27.265625 L 10.234375 -20.625 L 9.703125 -20.625 C 10.128906 -22.269531 10.757812 -23.613281 11.59375 -24.65625 C 12.425781 -25.707031 13.398438 -26.476562 14.515625 -26.96875 C 15.640625 -27.46875 16.820312 -27.71875 18.0625 -27.71875 C 20.03125 -27.71875 21.65625 -27.097656 22.9375 -25.859375 C 24.21875 -24.628906 25.117188 -22.769531 25.640625 -20.28125 L 24.796875 -20.28125 C 25.179688 -21.957031 25.828125 -23.34375 26.734375 -24.4375 C 27.648438 -25.539062 28.738281 -26.363281 30 -26.90625 C 31.257812 -27.445312 32.597656 -27.71875 34.015625 -27.71875 C 35.691406 -27.71875 37.191406 -27.347656 38.515625 -26.609375 C 39.847656 -25.878906 40.894531 -24.816406 41.65625 -23.421875 C 42.425781 -22.035156 42.8125 -20.335938 42.8125 -18.328125 L 42.8125 0 L 35.421875 0 L 35.421875 -16.921875 C 35.421875 -18.484375 35 -19.644531 34.15625 -20.40625 C 33.320312 -21.175781 32.285156 -21.5625 31.046875 -21.5625 C 30.109375 -21.5625 29.296875 -21.359375 28.609375 -20.953125 C 27.929688 -20.554688 27.40625 -19.992188 27.03125 -19.265625 C 26.664062 -18.546875 26.484375 -17.691406 26.484375 -16.703125 L 26.484375 0 L 19.34375 0 L 19.34375 -17.140625 C 19.34375 -18.492188 18.941406 -19.566406 18.140625 -20.359375 C 17.347656 -21.160156 16.316406 -21.5625 15.046875 -21.5625 C 14.171875 -21.5625 13.382812 -21.363281 12.6875 -20.96875 C 11.988281 -20.570312 11.429688 -19.988281 11.015625 -19.21875 C 10.609375 -18.457031 10.40625 -17.519531 10.40625 -16.40625 L 10.40625 0 Z M 3.03125 0 "/></g></g><g transform="translate(285.485617, 44.504741)"><g><path d="M 7.953125 0.46875 C 6.753906 0.46875 5.742188 0.0625 4.921875 -0.75 C 4.097656 -1.5625 3.6875 -2.570312 3.6875 -3.78125 C 3.6875 -4.96875 4.097656 -5.96875 4.921875 -6.78125 C 5.742188 -7.59375 6.753906 -8 7.953125 -8 C 9.140625 -8 10.144531 -7.59375 10.96875 -6.78125 C 11.789062 -5.96875 12.203125 -4.96875 12.203125 -3.78125 C 12.203125 -2.570312 11.789062 -1.5625 10.96875 -0.75 C 10.144531 0.0625 9.140625 0.46875 7.953125 0.46875 Z M 7.953125 0.46875 "/></g></g></g></g></g><g clip-path="url(#e2e9f1afcc)"><g clip-path="url(#cf344ce052)"><g clip-path="url(#68867fc8b7)"><path fill="#ffffff" d="M 197.285156 20.03125 L 197.929688 18.882812 C 199.003906 16.964844 200.957031 15.625 203.144531 15.324219 L 203.171875 15.316406 C 203.960938 15.203125 204.667969 14.753906 205.101562 14.082031 C 205.523438 13.429688 205.644531 12.660156 205.433594 11.917969 C 205.421875 11.875 205.402344 11.832031 205.390625 11.789062 C 204.910156 10.351562 203.375 9.640625 201.941406 10.074219 C 200.71875 10.457031 199.792969 11.257812 199.121094 12.339844 C 198.746094 12.941406 197.945312 13.128906 197.351562 12.746094 C 196.746094 12.375 196.570312 11.578125 196.941406 10.976562 C 197.949219 9.367188 199.359375 8.191406 201.183594 7.625 C 202.511719 7.210938 203.9375 7.316406 205.183594 7.945312 C 206.441406 8.570312 207.386719 9.65625 207.832031 10.984375 C 207.855469 11.066406 207.886719 11.140625 207.910156 11.222656 C 208.324219 12.667969 208.082031 14.238281 207.257812 15.5 C 206.414062 16.796875 205.054688 17.65625 203.527344 17.878906 L 203.5 17.886719 C 202.109375 18.078125 200.863281 18.933594 200.179688 20.15625 L 199.535156 21.300781 L 210.738281 40.6875 C 211.925781 42.742188 211.546875 45.402344 209.765625 46.988281 C 208.367188 48.21875 206.570312 48.414062 204.808594 47.960938 C 204.695312 47.933594 204.59375 47.886719 204.5 47.832031 L 172.078125 29.65625 C 171.980469 29.601562 171.886719 29.539062 171.804688 29.460938 C 170.5 28.195312 169.71875 26.550781 170.050781 24.722656 C 170.464844 22.375 172.542969 20.667969 174.914062 20.609375 Z M 173.476562 27.488281 L 205.589844 45.492188 C 206.453125 45.6875 207.359375 45.660156 208.054688 45.042969 C 208.925781 44.269531 209.082031 42.957031 208.496094 41.957031 L 197.320312 22.609375 L 174.964844 23.160156 C 173.816406 23.1875 172.769531 24 172.566406 25.148438 C 172.40625 26.078125 172.859375 26.855469 173.476562 27.488281 Z M 173.476562 27.488281 " fill-opacity="1" fill-rule="evenodd"/></g></g></g><path stroke-linecap="butt" transform="matrix(0.656576, 0.362502, -0.362502, 0.656576, 185.761341, 24.509875)" fill="none" stroke-linejoin="miter" d="M 0.000509731 1.00203 L 24.487123 0.999821 " stroke="#ffffff" stroke-width="2" stroke-opacity="1" stroke-miterlimit="4"/><g clip-path="url(#29a091a316)"><g transform="matrix(1, 0, 0, 1, 177, 3)"><g clip-path="url(#0eb851daaa)"><g clip-path="url(#a91fe1416e)"><path fill="#666666" d="M 0.898438 0.492188 L 33.84375 0.492188 L 33.84375 47.203125 L 0.898438 47.203125 Z M 0.898438 0.492188 " fill-opacity="1" fill-rule="nonzero"/></g></g></g></g><g fill="#f6a83c" fill-opacity="1"><g transform="translate(178.222961, 44.074492)"><g><path d="M 15.9375 0.453125 C 13.238281 0.453125 10.804688 -0.144531 8.640625 -1.34375 C 6.484375 -2.539062 4.789062 -4.234375 3.5625 -6.421875 C 2.332031 -8.617188 1.71875 -11.148438 1.71875 -14.015625 C 1.71875 -16.878906 2.347656 -19.40625 3.609375 -21.59375 C 4.878906 -23.789062 6.609375 -25.488281 8.796875 -26.6875 C 10.992188 -27.882812 13.441406 -28.484375 16.140625 -28.484375 C 18.835938 -28.484375 21.28125 -27.882812 23.46875 -26.6875 C 25.664062 -25.488281 27.394531 -23.789062 28.65625 -21.59375 C 29.925781 -19.40625 30.5625 -16.878906 30.5625 -14.015625 C 30.5625 -11.148438 29.910156 -8.617188 28.609375 -6.421875 C 27.304688 -4.234375 25.550781 -2.539062 23.34375 -1.34375 C 21.132812 -0.144531 18.664062 0.453125 15.9375 0.453125 Z M 15.9375 -5.71875 C 17.21875 -5.71875 18.421875 -6.03125 19.546875 -6.65625 C 20.679688 -7.28125 21.582031 -8.210938 22.25 -9.453125 C 22.925781 -10.703125 23.265625 -12.222656 23.265625 -14.015625 C 23.265625 -16.679688 22.566406 -18.726562 21.171875 -20.15625 C 19.773438 -21.59375 18.0625 -22.3125 16.03125 -22.3125 C 14.007812 -22.3125 12.316406 -21.59375 10.953125 -20.15625 C 9.585938 -18.726562 8.90625 -16.679688 8.90625 -14.015625 C 8.90625 -11.347656 9.570312 -9.296875 10.90625 -7.859375 C 12.238281 -6.429688 13.914062 -5.71875 15.9375 -5.71875 Z M 15.9375 -5.71875 "/></g></g></g><g clip-path="url(#b97f256aae)"><g clip-path="url(#b2bbefc1c4)"><g clip-path="url(#4ada079737)"><path fill="#f6a83c" d="M 199.5 17.566406 L 200.140625 16.421875 C 201.21875 14.5 203.171875 13.164062 205.355469 12.859375 L 205.382812 12.851562 C 206.175781 12.742188 206.878906 12.289062 207.3125 11.617188 C 207.738281 10.964844 207.855469 10.199219 207.648438 9.453125 C 207.636719 9.414062 207.613281 9.367188 207.601562 9.328125 C 207.125 7.886719 205.589844 7.179688 204.152344 7.613281 C 202.933594 7.992188 202.007812 8.792969 201.332031 9.875 C 200.960938 10.476562 200.160156 10.664062 199.5625 10.285156 C 198.960938 9.914062 198.78125 9.117188 199.152344 8.515625 C 200.160156 6.902344 201.574219 5.726562 203.394531 5.160156 C 204.726562 4.75 206.152344 4.851562 207.394531 5.480469 C 208.65625 6.105469 209.597656 7.191406 210.046875 8.519531 C 210.070312 8.601562 210.097656 8.675781 210.121094 8.757812 C 210.535156 10.207031 210.296875 11.773438 209.472656 13.035156 C 208.628906 14.335938 207.265625 15.195312 205.742188 15.414062 L 205.714844 15.421875 C 204.320312 15.613281 203.078125 16.46875 202.390625 17.695312 L 201.75 18.839844 L 212.949219 38.226562 C 214.136719 40.28125 213.757812 42.941406 211.980469 44.523438 C 210.582031 45.753906 208.78125 45.949219 207.023438 45.496094 C 206.910156 45.46875 206.808594 45.421875 206.710938 45.371094 L 174.289062 27.195312 C 174.191406 27.140625 174.101562 27.078125 174.019531 26.996094 C 172.714844 25.730469 171.933594 24.089844 172.261719 22.261719 C 172.675781 19.910156 174.757812 18.203125 177.128906 18.144531 Z M 175.691406 25.027344 L 207.804688 43.027344 C 208.667969 43.222656 209.574219 43.199219 210.265625 42.578125 C 211.140625 41.808594 211.296875 40.496094 210.710938 39.496094 L 199.535156 20.144531 L 177.179688 20.699219 C 176.03125 20.722656 174.984375 21.539062 174.777344 22.6875 C 174.617188 23.613281 175.074219 24.390625 175.691406 25.027344 Z M 175.691406 25.027344 " fill-opacity="1" fill-rule="evenodd"/></g></g></g><path stroke-linecap="butt" transform="matrix(0.701749, 0.264667, -0.264667, 0.701749, 186.722716, 24.862673)" fill="none" stroke-linejoin="miter" d="M -0.00244892 1.499165 L 23.338773 1.502081 " stroke="#f6a83c" stroke-width="3" stroke-opacity="1" stroke-miterlimit="4"/><g clip-path="url(#351049ac45)"><g clip-path="url(#b9256bd195)"><g transform="matrix(1, 0, 0, 1, 172, 24)"><g clip-path="url(#994d4e0e0d)"><g clip-path="url(#3e86d0c15f)"><g clip-path="url(#53c6f09035)"><path fill="#666666" d="M 0.457031 16.679688 L 6.5625 0.347656 L 36.230469 11.441406 L 30.125 27.773438 Z M 0.457031 16.679688 " fill-opacity="1" fill-rule="nonzero"/></g></g></g></g></g></g><g clip-path="url(#acfa0b8f38)"><g clip-path="url(#a5dcc12945)"><g clip-path="url(#04c6ebe218)"><g clip-path="url(#47b009d6cd)"><path fill="#ffffff" d="M 188.636719 44.441406 C 186.109375 43.484375 184.046875 42.066406 182.445312 40.179688 C 180.851562 38.300781 179.863281 36.113281 179.492188 33.636719 C 179.117188 31.148438 179.4375 28.5625 180.449219 25.878906 C 181.460938 23.203125 182.945312 21.058594 184.898438 19.460938 C 186.859375 17.855469 189.078125 16.875 191.550781 16.527344 C 194.027344 16.183594 196.527344 16.488281 199.054688 17.441406 C 201.574219 18.394531 203.648438 19.820312 205.273438 21.710938 C 206.902344 23.609375 207.917969 25.8125 208.324219 28.3125 C 208.738281 30.804688 208.441406 33.394531 207.429688 36.074219 C 206.414062 38.757812 204.910156 40.894531 202.917969 42.488281 C 200.921875 44.070312 198.683594 45.039062 196.195312 45.375 C 193.707031 45.714844 191.183594 45.402344 188.636719 44.441406 Z M 190.816406 38.667969 C 192.015625 39.117188 193.25 39.253906 194.523438 39.066406 C 195.804688 38.878906 196.976562 38.328125 198.039062 37.402344 C 199.113281 36.472656 199.96875 35.171875 200.601562 33.496094 C 201.546875 31.003906 201.613281 28.839844 200.816406 27.011719 C 200.015625 25.171875 198.667969 23.894531 196.769531 23.175781 C 194.878906 22.460938 193.042969 22.535156 191.257812 23.398438 C 189.472656 24.253906 188.113281 25.929688 187.171875 28.421875 C 186.230469 30.914062 186.125 33.070312 186.867188 34.886719 C 187.609375 36.695312 188.925781 37.949219 190.816406 38.667969 Z M 190.816406 38.667969 " fill-opacity="1" fill-rule="nonzero"/></g></g></g></g></svg>